<mxfile><diagram name="ERD"><mxGraphModel><root><mxCell id="0" /><mxCell id="1" parent="0" /><mxCell id="2" value="&lt;b&gt;Users&lt;/b&gt;&lt;br&gt;id&lt;br&gt;username&lt;br&gt;email" style="shape=swimlane;startSize=20;" vertex="1" parent="1"><mxGeometry x="40" y="40" width="160" height="90" as="geometry" /></mxCell><mxCell id="3" value="&lt;b&gt;Orders&lt;/b&gt;&lt;br&gt;order_id&lt;br&gt;user_id&lt;br&gt;amount&lt;br&gt;date" style="shape=swimlane;startSize=20;" vertex="1" parent="1"><mxGeometry x="240" y="40" width="160" height="110" as="geometry" /></mxCell><mxCell id="4" value="&lt;b&gt;Products&lt;/b&gt;&lt;br&gt;product_id&lt;br&gt;name&lt;br&gt;price" style="shape=swimlane;startSize=20;" vertex="1" parent="1"><mxGeometry x="440" y="40" width="160" height="90" as="geometry" /></mxCell></root></mxGraphModel></diagram></mxfile>